<svg width="995" height="1170" viewBox="0 0 995 1170" fill="none" xmlns="http://www.w3.org/2000/svg">
<path d="M489.575 0.527828C506.07 -2.2723 517.857 6.60569 531.26 14.4988C538.761 18.9178 546.256 23.3759 553.793 27.7416L668.594 95.4582L877.157 220.349L941.713 259.616C953.683 266.9 965.936 274.283 977.716 281.857C982.076 284.659 989.411 292.734 991.242 297.343C993.024 301.813 994.377 310.626 994.402 315.532C994.549 344.966 994.457 374.55 994.426 403.978L994.071 587.833L994.102 755.274C994.157 785.032 995.124 820.974 993.955 850.212C993.734 856.653 992.271 862.997 989.644 868.881C982.278 885.089 955.263 897.99 940.286 907.224C917.049 921.729 893.653 935.971 870.091 949.95L673.45 1068.9L563.37 1135.88C551.148 1143.33 521.831 1162.65 510.271 1167.12C498.496 1170.06 487.334 1169.97 476.367 1164.04C465.45 1158.14 454.834 1151.36 444.253 1144.85L394.457 1114.43L233.474 1016.06L75.4767 921.796L35.3481 897.88C18.5159 887.905 0.683099 880.943 0.0910003 858.362C-0.0467683 853.127 0.0138475 847.867 0.0101737 842.632L0.0205912 805.201L0.0438553 676.195L0.0769203 435.846L0.0567113 358.588C0.0487514 344.061 -0.133102 329.467 0.266733 314.95C0.59799 302.925 6.41794 291.557 16.4187 284.741C26.1152 278.133 36.1478 272.033 46.1033 265.836C64.2942 254.482 82.5538 243.238 100.881 232.105L271.672 128.843L388.552 57.75C405.663 47.1327 422.865 36.6641 440.157 26.3468C452.757 18.6961 475.762 2.68192 489.575 0.527828Z" fill="#032856"/>
<path d="M493.377 29.2234C499.236 29.1101 503.235 30.2625 508.353 33.0827C517.71 38.242 526.851 43.8024 536.066 49.2096L582.308 76.1572C655.888 119.415 729.022 163.422 801.703 208.173C837.302 229.579 872.773 251.206 908.109 273.051C919.308 279.955 957.344 302.161 963.461 309.604C965.923 321.272 965.035 352.285 965.016 365.713L964.545 473.925L963.896 735.252C963.761 773.962 963.847 812.776 963.688 851.485C963.675 854.296 962.984 855.796 961.888 858.392C952.47 866.714 925.4 882.486 913.669 889.712L826.146 943.539L618.293 1068.98L547.247 1112.37C534.658 1120.1 522.063 1127.98 509.339 1135.48C504.765 1138.18 503.045 1138.97 497.846 1139.87C492.709 1139.82 488.95 1138.17 484.67 1135.59C475.411 1129.99 466.22 1124.28 457.016 1118.59L392.58 1078.7L192.143 957.794C150.953 933.81 110.03 909.367 69.3813 884.476C58.8031 878.041 46.7958 871.263 36.5176 864.785C34.9703 863.83 33.6563 862.538 32.6705 861.007C30.5575 857.688 29.7143 853.831 29.7076 849.961C29.6231 803.101 29.718 756.15 29.7486 709.296L29.7253 450.265L29.7394 357.815C29.7137 347.225 28.336 323.218 31.4331 312.193C31.9278 310.432 40.4541 304.718 42.7368 303.325C69.0696 287.25 95.4103 271.161 121.686 254.975L372.8 101.232L446.781 55.8519C455.623 50.4312 485.263 31.2422 493.377 29.2234Z" fill="#FEFEFE"/>
<path d="M488.59 206.887C502.251 207.21 509.598 218.527 514.123 230.08C523.755 254.698 528.408 281.461 533.037 307.387C539.418 343.127 544.12 379.142 549.925 414.977C572.598 403.788 592.878 406.846 611.308 424.472C629.708 442.068 641.685 464.881 653.447 487.137C683.444 543.876 709.295 607.611 763.821 645.69C783.562 659.289 805.837 668.774 829.313 673.593C841.994 676.342 854.883 678.001 867.846 678.558C872.842 678.761 883.704 678.197 887.109 680.444C888.058 681.798 888.774 683.077 888.652 684.798C888.541 686.408 887.856 687.186 886.558 688.019C878.328 693.291 826.521 683.83 815.095 680.64C711.469 651.727 682.072 558.188 634.906 474.285C623.567 454.116 607.898 426.323 584.042 419.848C572.164 416.625 561.681 420.067 551.382 426.004C561.362 482.143 568.582 545.469 588.218 599.045C603.128 638.789 622.966 670.439 668.51 676.526C686.579 678.944 705.334 677.438 723.586 677.756C726.948 678.026 737.645 677.095 740.229 679.097C744.117 682.11 743.076 689.341 736.469 689.684C730.702 689.978 725.57 689.904 720.047 689.904L685.764 689.831C667.799 689.764 645.205 689.641 627.724 685.876C562.795 671.866 508.545 615.62 456.653 575.183C435.574 612.27 411.631 652.946 373.089 674.083C362.086 680.163 350.182 684.449 337.827 686.77C330.78 688.104 323.649 688.937 316.486 689.268C308.099 689.739 243.026 690.976 239.185 689.292C237.178 688.417 236.002 686.114 235.398 684.149C235.989 680.01 240.475 678.081 244.292 677.909C269.239 677.083 293.742 679.765 318.453 674.909C372.745 664.249 391.749 602.455 403.028 555.098C425.989 458.706 433.052 358.253 454.6 261.537C457.943 246.529 462.949 230.023 471.528 217.231C475.689 211.029 481.359 208.065 488.59 206.887Z" fill="#032856"/>
<path d="M488.944 218.918C490.566 219.192 492.042 219.65 493.432 220.558C515.732 235.164 532.877 388.113 539.239 422.797C509.125 445.135 471.256 525.443 452.907 560.507C443.462 553.682 432.191 547.201 421.992 541.594L419.519 551.797C428.301 556.122 440.503 564.02 448.409 569.715C435.008 591.098 428.713 604.519 412.588 625.252C396.272 645.311 381.897 659.192 358.072 670.495C372.635 657.588 381.925 646.003 390.484 628.185C414.188 578.833 424.032 516.89 432.846 462.98L453.894 328.584C458.821 298.349 464.617 262.469 475.729 233.941C478.407 227.068 481.933 221.705 488.944 218.918Z" fill="#FEFEFE"/>
<path d="M540.53 435.021C541.001 435.529 549.586 488.587 550.357 492.974C553.199 509.395 556.395 525.753 559.946 542.035C570.919 590.234 585.24 648.115 629.51 676.006C607.332 671.328 592.496 663.686 573.368 652.781C559.646 644.809 544.914 633.414 532.448 623.58C508.5 604.685 485.863 584.436 461.105 566.519C482.085 528.739 510.509 463.181 540.53 435.021Z" fill="#FEFEFE"/>
<path d="M481.376 816.052C515.983 813.505 522.406 863.548 489.519 871.655C483.145 871.974 478.203 871.87 472.569 868.826C454.553 859.085 454.454 828.525 472.737 818.991C475.921 817.332 477.986 816.811 481.376 816.052Z" fill="#FEFEFE"/>
<path d="M598.051 848.093C598.29 848.044 599.221 848.155 599.509 848.179C600.739 850.965 599.735 858.876 598.572 861.742C593.6 874.012 579.701 876.186 568.551 872.359C565.961 870.424 563.72 868.379 563.211 864.981C562.715 861.858 563.579 858.674 565.569 856.225C571.324 849.281 589.155 848.987 598.051 848.093Z" fill="#FEFEFE"/>
<path d="M348.607 524.756C369.243 523.636 385.204 527.073 404.494 534.057C403.667 537.316 402.861 540.581 402.076 543.852C399.23 542.73 396.346 541.71 393.429 540.791C311.359 514.433 262.532 575.93 208.098 624.155C184.91 644.698 164.036 659.681 136.558 673.874C123.437 680.316 103.178 688.943 88.4776 688.649C87.5573 688.631 85.5998 685.9 85.5337 684.933C84.9783 676.85 100.945 678.063 106.235 675.424C152.312 660.465 188.473 628.907 223.352 596.491C260.547 561.93 295.011 528.56 348.607 524.756Z" fill="#032856"/>
<path d="M377.179 694.699C380.081 694.65 381.03 694.577 383.121 696.64C384.345 699.291 384.019 701.784 384.008 704.765C410.024 703.816 440.828 704.582 467.16 704.563L467.104 712.468L454.043 712.432L384.179 712.376C384.04 716.185 383.816 722.908 379.12 723.655C373.13 720.961 373.622 709.615 373.812 704.129C373.96 699.836 373.86 697.632 377.179 694.699Z" fill="#032856"/>
<path d="M593.513 694.674C595.613 694.607 595.637 694.509 597.688 695.256C601.693 698.869 602.66 721.218 595.221 723.03C589.906 721.12 590.696 717.176 590.61 712.462L525.069 712.474L507.551 712.535L507.453 704.649L590.518 704.722C590.604 699.511 589.275 698.318 593.513 694.674Z" fill="#032856"/>
<path d="M484.559 692.048C493.64 690.536 502.23 696.652 503.779 705.727C505.328 714.795 499.248 723.416 490.186 725.002C481.064 726.594 472.385 720.477 470.827 711.348C469.269 702.225 475.427 693.567 484.559 692.048Z" fill="#022756"/>
<path d="M796.357 520.767C799.468 519.467 803.044 520.925 804.36 524.028C805.683 527.132 804.244 530.716 801.145 532.05C798.023 533.393 794.41 531.943 793.081 528.815C791.753 525.687 793.222 522.078 796.357 520.767Z" fill="#FEFEFE"/>
<path d="M647.169 270.961C650.004 271.213 652.208 272.395 652.906 275.291L652.141 276.305L649.826 276.415C646.538 276.515 645.846 277.041 643.33 275.643L643.109 274.528C644.463 272.428 644.952 272.315 647.169 270.961Z" fill="#FEFEFE"/>
<path d="M701.42 503.909V533H698.068V503.909H701.42ZM707.56 533V511.182H710.913V533H707.56ZM709.265 507.545C708.612 507.545 708.048 507.323 707.575 506.878C707.111 506.433 706.879 505.898 706.879 505.273C706.879 504.648 707.111 504.113 707.575 503.668C708.048 503.223 708.612 503 709.265 503C709.918 503 710.477 503.223 710.941 503.668C711.415 504.113 711.651 504.648 711.651 505.273C711.651 505.898 711.415 506.433 710.941 506.878C710.477 507.323 709.918 507.545 709.265 507.545ZM720.178 525.045L720.121 520.898H720.803L730.348 511.182H734.496L724.325 521.466H724.041L720.178 525.045ZM717.053 533V503.909H720.405V533H717.053ZM730.916 533L722.393 522.205L724.78 519.875L735.178 533H730.916ZM747.06 533.455C744.957 533.455 743.144 532.991 741.619 532.062C740.104 531.125 738.935 529.818 738.111 528.142C737.296 526.456 736.889 524.496 736.889 522.261C736.889 520.027 737.296 518.057 738.111 516.352C738.935 514.638 740.08 513.303 741.548 512.347C743.026 511.381 744.749 510.898 746.719 510.898C747.855 510.898 748.977 511.087 750.085 511.466C751.193 511.845 752.202 512.46 753.111 513.312C754.02 514.155 754.744 515.273 755.284 516.665C755.824 518.057 756.094 519.771 756.094 521.807V523.227H739.276V520.33H752.685C752.685 519.098 752.438 518 751.946 517.034C751.463 516.068 750.772 515.306 749.872 514.747C748.982 514.188 747.931 513.909 746.719 513.909C745.384 513.909 744.228 514.241 743.253 514.903C742.287 515.557 741.544 516.409 741.023 517.46C740.502 518.511 740.241 519.638 740.241 520.841V522.773C740.241 524.42 740.526 525.817 741.094 526.963C741.671 528.099 742.472 528.966 743.494 529.562C744.517 530.15 745.705 530.443 747.06 530.443C747.94 530.443 748.736 530.32 749.446 530.074C750.166 529.818 750.786 529.439 751.307 528.938C751.828 528.426 752.23 527.792 752.514 527.034L755.753 527.943C755.412 529.042 754.839 530.008 754.034 530.841C753.229 531.665 752.235 532.309 751.051 532.773C749.867 533.227 748.537 533.455 747.06 533.455ZM764.545 503.909V533H761.193V503.909H764.545ZM770.685 533V511.182H774.038V533H770.685ZM772.39 507.545C771.737 507.545 771.173 507.323 770.7 506.878C770.236 506.433 770.004 505.898 770.004 505.273C770.004 504.648 770.236 504.113 770.7 503.668C771.173 503.223 771.737 503 772.39 503C773.043 503 773.602 503.223 774.066 503.668C774.54 504.113 774.776 504.648 774.776 505.273C774.776 505.898 774.54 506.433 774.066 506.878C773.602 507.323 773.043 507.545 772.39 507.545ZM783.53 519.875V533H780.178V503.909H783.53V514.591H783.814C784.325 513.464 785.092 512.569 786.115 511.906C787.147 511.234 788.52 510.898 790.234 510.898C791.721 510.898 793.023 511.196 794.141 511.793C795.258 512.38 796.125 513.284 796.74 514.506C797.365 515.718 797.678 517.261 797.678 519.136V533H794.325V519.364C794.325 517.631 793.875 516.291 792.976 515.344C792.086 514.387 790.85 513.909 789.268 513.909C788.17 513.909 787.185 514.141 786.314 514.605C785.452 515.069 784.77 515.746 784.268 516.636C783.776 517.527 783.53 518.606 783.53 519.875ZM812.674 533.455C810.704 533.455 808.976 532.986 807.489 532.048C806.012 531.111 804.857 529.799 804.023 528.114C803.2 526.428 802.788 524.458 802.788 522.205C802.788 519.932 803.2 517.948 804.023 516.253C804.857 514.558 806.012 513.241 807.489 512.304C808.976 511.366 810.704 510.898 812.674 510.898C814.644 510.898 816.367 511.366 817.844 512.304C819.331 513.241 820.487 514.558 821.31 516.253C822.144 517.948 822.56 519.932 822.56 522.205C822.56 524.458 822.144 526.428 821.31 528.114C820.487 529.799 819.331 531.111 817.844 532.048C816.367 532.986 814.644 533.455 812.674 533.455ZM812.674 530.443C814.17 530.443 815.401 530.06 816.367 529.293C817.333 528.526 818.048 527.517 818.512 526.267C818.976 525.017 819.208 523.663 819.208 522.205C819.208 520.746 818.976 519.387 818.512 518.128C818.048 516.868 817.333 515.85 816.367 515.074C815.401 514.297 814.17 513.909 812.674 513.909C811.178 513.909 809.947 514.297 808.981 515.074C808.015 515.85 807.3 516.868 806.836 518.128C806.372 519.387 806.14 520.746 806.14 522.205C806.14 523.663 806.372 525.017 806.836 526.267C807.3 527.517 808.015 528.526 808.981 529.293C809.947 530.06 811.178 530.443 812.674 530.443ZM836.541 533.455C834.571 533.455 832.843 532.986 831.357 532.048C829.879 531.111 828.724 529.799 827.891 528.114C827.067 526.428 826.655 524.458 826.655 522.205C826.655 519.932 827.067 517.948 827.891 516.253C828.724 514.558 829.879 513.241 831.357 512.304C832.843 511.366 834.571 510.898 836.541 510.898C838.511 510.898 840.234 511.366 841.712 512.304C843.198 513.241 844.354 514.558 845.178 516.253C846.011 517.948 846.428 519.932 846.428 522.205C846.428 524.458 846.011 526.428 845.178 528.114C844.354 529.799 843.198 531.111 841.712 532.048C840.234 532.986 838.511 533.455 836.541 533.455ZM836.541 530.443C838.037 530.443 839.268 530.06 840.234 529.293C841.2 528.526 841.915 527.517 842.379 526.267C842.843 525.017 843.075 523.663 843.075 522.205C843.075 520.746 842.843 519.387 842.379 518.128C841.915 516.868 841.2 515.85 840.234 515.074C839.268 514.297 838.037 513.909 836.541 513.909C835.045 513.909 833.814 514.297 832.848 515.074C831.882 515.85 831.167 516.868 830.703 518.128C830.239 519.387 830.007 520.746 830.007 522.205C830.007 523.663 830.239 525.017 830.703 526.267C831.167 527.517 831.882 528.526 832.848 529.293C833.814 530.06 835.045 530.443 836.541 530.443ZM859.783 533.455C857.965 533.455 856.36 532.995 854.968 532.077C853.576 531.149 852.487 529.842 851.701 528.156C850.915 526.461 850.522 524.458 850.522 522.148C850.522 519.856 850.915 517.867 851.701 516.182C852.487 514.496 853.581 513.194 854.982 512.276C856.384 511.357 858.003 510.898 859.84 510.898C861.261 510.898 862.383 511.134 863.207 511.608C864.04 512.072 864.674 512.602 865.11 513.199C865.555 513.786 865.901 514.269 866.147 514.648H866.431V503.909H869.783V533H866.545V529.648H866.147C865.901 530.045 865.55 530.547 865.096 531.153C864.641 531.75 863.993 532.285 863.15 532.759C862.307 533.223 861.185 533.455 859.783 533.455ZM860.238 530.443C861.583 530.443 862.719 530.093 863.647 529.392C864.575 528.682 865.281 527.702 865.763 526.452C866.246 525.192 866.488 523.739 866.488 522.091C866.488 520.462 866.251 519.037 865.778 517.815C865.304 516.584 864.603 515.628 863.675 514.946C862.747 514.255 861.602 513.909 860.238 513.909C858.817 513.909 857.634 514.274 856.687 515.003C855.749 515.723 855.044 516.703 854.57 517.943C854.106 519.174 853.874 520.557 853.874 522.091C853.874 523.644 854.111 525.055 854.585 526.324C855.067 527.583 855.778 528.587 856.715 529.335C857.662 530.074 858.836 530.443 860.238 530.443Z" fill="#032856"/>
<path d="M191.365 910.114C183.622 910.114 176.983 909.048 171.447 906.915C165.948 904.821 161.572 901.959 158.317 898.331C155.063 894.703 152.95 890.625 151.977 886.099L174.084 883.126C174.757 884.846 175.823 886.455 177.282 887.951C178.741 889.447 180.667 890.644 183.061 891.542C185.492 892.477 188.447 892.945 191.926 892.945C197.125 892.945 201.408 891.673 204.775 889.129C208.179 886.623 209.881 882.415 209.881 876.505V860.739H208.871C207.823 863.133 206.252 865.396 204.158 867.528C202.063 869.66 199.37 871.399 196.078 872.746C192.786 874.092 188.859 874.766 184.295 874.766C177.824 874.766 171.933 873.269 166.621 870.277C161.347 867.247 157.139 862.628 153.997 856.418C150.893 850.172 149.34 842.279 149.34 832.741C149.34 822.978 150.93 814.824 154.109 808.278C157.289 801.732 161.516 796.832 166.79 793.577C172.101 790.323 177.918 788.696 184.239 788.696C189.065 788.696 193.104 789.519 196.359 791.165C199.613 792.773 202.231 794.793 204.214 797.224C206.234 799.618 207.786 801.975 208.871 804.294H209.768V789.818H233.502V876.842C233.502 884.173 231.707 890.308 228.116 895.245C224.525 900.183 219.55 903.886 213.191 906.354C206.87 908.861 199.594 910.114 191.365 910.114ZM191.87 856.811C195.723 856.811 198.977 855.857 201.633 853.95C204.326 852.004 206.383 849.237 207.805 845.646C209.263 842.017 209.993 837.678 209.993 832.629C209.993 827.579 209.282 823.202 207.861 819.499C206.439 815.759 204.382 812.86 201.689 810.803C198.996 808.745 195.723 807.717 191.87 807.717C187.942 807.717 184.632 808.783 181.939 810.915C179.246 813.009 177.207 815.927 175.823 819.668C174.439 823.408 173.747 827.728 173.747 832.629C173.747 837.603 174.439 841.905 175.823 845.533C177.245 849.124 179.283 851.911 181.939 853.893C184.632 855.839 187.942 856.811 191.87 856.811ZM252.523 908.318V789.818H276.088V804.294H277.154C278.201 801.975 279.716 799.618 281.699 797.224C283.719 794.793 286.337 792.773 289.554 791.165C292.808 789.519 296.848 788.696 301.673 788.696C307.957 788.696 313.755 790.342 319.067 793.634C324.378 796.888 328.624 801.807 331.803 808.39C334.983 814.936 336.572 823.146 336.572 833.021C336.572 842.634 335.02 850.751 331.915 857.372C328.848 863.955 324.659 868.949 319.347 872.353C314.073 875.719 308.163 877.403 301.617 877.403C296.979 877.403 293.033 876.636 289.778 875.102C286.562 873.569 283.924 871.642 281.867 869.323C279.81 866.967 278.239 864.591 277.154 862.197H276.425V908.318H252.523ZM275.92 832.909C275.92 838.034 276.63 842.504 278.052 846.319C279.473 850.134 281.531 853.108 284.224 855.24C286.917 857.335 290.19 858.382 294.043 858.382C297.933 858.382 301.224 857.316 303.918 855.184C306.611 853.014 308.649 850.022 310.033 846.207C311.455 842.354 312.165 837.921 312.165 832.909C312.165 827.934 311.473 823.558 310.089 819.78C308.705 816.002 306.667 813.047 303.974 810.915C301.281 808.783 297.97 807.717 294.043 807.717C290.152 807.717 286.861 808.745 284.168 810.803C281.512 812.86 279.473 815.777 278.052 819.555C276.63 823.333 275.92 827.785 275.92 832.909ZM394.756 877.571C386.378 877.571 378.915 876.131 372.369 873.251C365.861 870.333 360.718 866.331 356.94 861.244C353.199 856.119 351.273 850.209 351.161 843.513H375.624C375.773 846.319 376.69 848.788 378.373 850.92C380.094 853.014 382.375 854.642 385.218 855.801C388.061 856.961 391.259 857.54 394.812 857.54C398.516 857.54 401.789 856.886 404.631 855.577C407.474 854.268 409.7 852.453 411.308 850.134C412.917 847.815 413.721 845.141 413.721 842.111C413.721 839.044 412.861 836.332 411.14 833.975C409.457 831.581 407.025 829.711 403.846 828.364C400.704 827.018 396.963 826.344 392.624 826.344H381.908V808.502H392.624C396.29 808.502 399.526 807.866 402.331 806.594C405.174 805.323 407.381 803.565 408.952 801.32C410.523 799.039 411.308 796.383 411.308 793.353C411.308 790.473 410.616 787.948 409.232 785.778C407.886 783.571 405.978 781.851 403.509 780.616C401.078 779.382 398.235 778.765 394.981 778.765C391.689 778.765 388.678 779.363 385.947 780.56C383.217 781.72 381.029 783.384 379.383 785.554C377.737 787.723 376.858 790.267 376.746 793.185H353.461C353.573 786.564 355.462 780.729 359.128 775.679C362.794 770.629 367.731 766.683 373.94 763.84C380.187 760.96 387.238 759.52 395.093 759.52C403.023 759.52 409.962 760.96 415.909 763.84C421.857 766.72 426.476 770.611 429.768 775.511C433.097 780.373 434.743 785.835 434.705 791.894C434.743 798.328 432.741 803.696 428.702 807.997C424.699 812.299 419.481 815.029 413.048 816.189V817.087C421.501 818.171 427.935 821.108 432.349 825.896C436.8 830.646 439.007 836.594 438.969 843.738C439.007 850.284 437.118 856.1 433.303 861.188C429.525 866.275 424.307 870.277 417.648 873.195C410.99 876.112 403.36 877.571 394.756 877.571Z" fill="#6E0404"/>
<path d="M457.106 876V761.091H481.008V804.294H481.738C482.785 801.975 484.3 799.618 486.282 797.224C488.302 794.793 490.921 792.773 494.138 791.165C497.392 789.519 501.432 788.696 506.257 788.696C512.541 788.696 518.339 790.342 523.65 793.634C528.962 796.888 533.207 801.807 536.387 808.39C539.566 814.936 541.156 823.146 541.156 833.021C541.156 842.634 539.604 850.751 536.499 857.372C533.432 863.955 529.242 868.949 523.931 872.353C518.657 875.719 512.747 877.403 506.201 877.403C501.563 877.403 497.616 876.636 494.362 875.102C491.145 873.569 488.508 871.642 486.451 869.323C484.394 866.967 482.823 864.591 481.738 862.197H480.672V876H457.106ZM480.503 832.909C480.503 838.034 481.214 842.504 482.635 846.319C484.057 850.134 486.114 853.108 488.807 855.24C491.501 857.335 494.773 858.382 498.626 858.382C502.516 858.382 505.808 857.316 508.501 855.184C511.194 853.014 513.233 850.022 514.617 846.207C516.038 842.354 516.749 837.921 516.749 832.909C516.749 827.934 516.057 823.558 514.673 819.78C513.289 816.002 511.251 813.047 508.557 810.915C505.864 808.783 502.554 807.717 498.626 807.717C494.736 807.717 491.444 808.745 488.751 810.803C486.095 812.86 484.057 815.777 482.635 819.555C481.214 823.333 480.503 827.785 480.503 832.909ZM581.68 877.627C576.181 877.627 571.281 876.673 566.98 874.766C562.678 872.821 559.274 869.959 556.768 866.181C554.299 862.366 553.065 857.615 553.065 851.93C553.065 847.142 553.944 843.121 555.702 839.866C557.46 836.612 559.854 833.994 562.884 832.011C565.914 830.029 569.355 828.533 573.208 827.523C577.098 826.513 581.175 825.802 585.439 825.391C590.452 824.867 594.491 824.381 597.559 823.932C600.626 823.446 602.851 822.735 604.235 821.8C605.619 820.865 606.311 819.481 606.311 817.648V817.311C606.311 813.758 605.189 811.008 602.945 809.063C600.738 807.118 597.596 806.146 593.519 806.146C589.217 806.146 585.795 807.099 583.251 809.007C580.708 810.877 579.024 813.234 578.201 816.077L556.095 814.281C557.217 809.045 559.424 804.518 562.716 800.703C566.007 796.85 570.253 793.895 575.452 791.838C580.689 789.743 586.748 788.696 593.631 788.696C598.419 788.696 603.001 789.257 607.377 790.379C611.791 791.501 615.7 793.241 619.104 795.597C622.545 797.954 625.257 800.984 627.24 804.687C629.222 808.353 630.213 812.748 630.213 817.872V876H607.546V864.049H606.873C605.489 866.742 603.637 869.117 601.318 871.175C598.999 873.195 596.212 874.784 592.958 875.944C589.703 877.066 585.944 877.627 581.68 877.627ZM588.525 861.131C592.041 861.131 595.146 860.439 597.839 859.055C600.532 857.634 602.646 855.726 604.179 853.332C605.713 850.938 606.48 848.227 606.48 845.197V836.051C605.732 836.537 604.703 836.986 603.394 837.398C602.122 837.772 600.682 838.127 599.074 838.464C597.465 838.763 595.857 839.044 594.248 839.305C592.64 839.53 591.181 839.736 589.872 839.923C587.066 840.334 584.616 840.989 582.522 841.886C580.427 842.784 578.8 844 577.64 845.533C576.481 847.03 575.901 848.9 575.901 851.144C575.901 854.398 577.079 856.886 579.436 858.607C581.83 860.29 584.859 861.131 588.525 861.131ZM660.428 908.318C657.398 908.318 654.555 908.075 651.899 907.589C649.281 907.14 647.111 906.56 645.391 905.849L650.777 888.007C653.582 888.867 656.107 889.335 658.352 889.41C660.633 889.485 662.597 888.961 664.243 887.839C665.926 886.717 667.291 884.809 668.339 882.116L669.741 878.469L638.826 789.818H663.962L681.805 853.108H682.702L700.713 789.818H726.018L692.521 885.314C690.913 889.952 688.725 893.992 685.957 897.433C683.226 900.912 679.766 903.586 675.577 905.457C671.387 907.364 666.338 908.318 660.428 908.318ZM774.748 877.683C765.882 877.683 758.252 875.888 751.855 872.297C745.497 868.669 740.596 863.544 737.155 856.923C733.714 850.265 731.993 842.391 731.993 833.302C731.993 824.437 733.714 816.656 737.155 809.961C740.596 803.265 745.44 798.047 751.687 794.307C757.971 790.566 765.34 788.696 773.794 788.696C779.479 788.696 784.772 789.612 789.672 791.445C794.61 793.241 798.911 795.953 802.577 799.581C806.28 803.209 809.16 807.773 811.218 813.271C813.275 818.732 814.304 825.129 814.304 832.46V839.025H741.532V824.212H791.804C791.804 820.771 791.056 817.723 789.56 815.067C788.064 812.411 785.988 810.335 783.332 808.839C780.714 807.305 777.665 806.538 774.186 806.538C770.558 806.538 767.341 807.38 764.536 809.063C761.768 810.709 759.598 812.935 758.027 815.74C756.456 818.508 755.652 821.594 755.615 824.998V839.081C755.615 843.345 756.4 847.03 757.971 850.134C759.58 853.239 761.843 855.633 764.76 857.316C767.678 858.999 771.138 859.841 775.14 859.841C777.796 859.841 780.227 859.467 782.434 858.719C784.641 857.971 786.53 856.848 788.101 855.352C789.672 853.856 790.869 852.023 791.692 849.854L813.799 851.312C812.676 856.624 810.376 861.262 806.897 865.227C803.456 869.155 799.005 872.222 793.544 874.429C788.12 876.598 781.855 877.683 774.748 877.683ZM901.608 814.393L879.726 815.74C879.351 813.87 878.547 812.187 877.313 810.69C876.078 809.157 874.451 807.941 872.431 807.043C870.449 806.108 868.074 805.641 865.306 805.641C861.603 805.641 858.479 806.426 855.936 807.997C853.392 809.531 852.12 811.588 852.12 814.169C852.12 816.226 852.943 817.966 854.589 819.387C856.235 820.808 859.059 821.949 863.061 822.81L878.659 825.952C887.038 827.672 893.285 830.44 897.4 834.256C901.514 838.071 903.571 843.083 903.571 849.293C903.571 854.941 901.907 859.897 898.578 864.161C895.286 868.425 890.76 871.754 885 874.148C879.277 876.505 872.675 877.683 865.194 877.683C853.785 877.683 844.695 875.308 837.925 870.558C831.192 865.77 827.246 859.261 826.086 851.032L849.596 849.798C850.306 853.276 852.027 855.932 854.757 857.765C857.488 859.56 860.985 860.458 865.25 860.458C869.439 860.458 872.806 859.654 875.349 858.045C877.93 856.4 879.239 854.286 879.277 851.705C879.239 849.536 878.323 847.759 876.527 846.375C874.732 844.954 871.964 843.869 868.223 843.121L853.299 840.147C844.882 838.464 838.617 835.546 834.502 831.394C830.425 827.242 828.387 821.949 828.387 815.516C828.387 809.98 829.883 805.21 832.875 801.208C835.905 797.206 840.151 794.12 845.612 791.95C851.11 789.781 857.544 788.696 864.913 788.696C875.798 788.696 884.364 790.996 890.61 795.597C896.895 800.198 900.56 806.464 901.608 814.393Z" fill="#032856"/>
<path d="M566.068 293.182V263.182H569.307V266.648H569.705C569.951 266.269 570.292 265.786 570.727 265.199C571.172 264.602 571.807 264.072 572.631 263.608C573.464 263.134 574.591 262.898 576.011 262.898C577.848 262.898 579.468 263.357 580.869 264.276C582.271 265.194 583.365 266.496 584.151 268.182C584.937 269.867 585.33 271.856 585.33 274.148C585.33 276.458 584.937 278.461 584.151 280.156C583.365 281.842 582.276 283.149 580.884 284.077C579.491 284.995 577.886 285.455 576.068 285.455C574.667 285.455 573.545 285.223 572.702 284.759C571.859 284.285 571.21 283.75 570.756 283.153C570.301 282.547 569.951 282.045 569.705 281.648H569.42V293.182H566.068ZM569.364 274.091C569.364 275.739 569.605 277.192 570.088 278.452C570.571 279.702 571.277 280.682 572.205 281.392C573.133 282.093 574.269 282.443 575.614 282.443C577.015 282.443 578.185 282.074 579.122 281.335C580.069 280.587 580.779 279.583 581.253 278.324C581.736 277.055 581.977 275.644 581.977 274.091C581.977 272.557 581.741 271.174 581.267 269.943C580.803 268.703 580.098 267.723 579.151 267.003C578.213 266.274 577.034 265.909 575.614 265.909C574.25 265.909 573.104 266.255 572.176 266.946C571.248 267.628 570.547 268.584 570.074 269.815C569.6 271.037 569.364 272.462 569.364 274.091ZM599.307 285.455C597.337 285.455 595.609 284.986 594.122 284.048C592.645 283.111 591.49 281.799 590.656 280.114C589.832 278.428 589.42 276.458 589.42 274.205C589.42 271.932 589.832 269.948 590.656 268.253C591.49 266.558 592.645 265.241 594.122 264.304C595.609 263.366 597.337 262.898 599.307 262.898C601.277 262.898 603 263.366 604.477 264.304C605.964 265.241 607.119 266.558 607.943 268.253C608.777 269.948 609.193 271.932 609.193 274.205C609.193 276.458 608.777 278.428 607.943 280.114C607.119 281.799 605.964 283.111 604.477 284.048C603 284.986 601.277 285.455 599.307 285.455ZM599.307 282.443C600.803 282.443 602.034 282.06 603 281.293C603.966 280.526 604.681 279.517 605.145 278.267C605.609 277.017 605.841 275.663 605.841 274.205C605.841 272.746 605.609 271.387 605.145 270.128C604.681 268.868 603.966 267.85 603 267.074C602.034 266.297 600.803 265.909 599.307 265.909C597.811 265.909 596.58 266.297 595.614 267.074C594.648 267.85 593.933 268.868 593.469 270.128C593.005 271.387 592.773 272.746 592.773 274.205C592.773 275.663 593.005 277.017 593.469 278.267C593.933 279.517 594.648 280.526 595.614 281.293C596.58 282.06 597.811 282.443 599.307 282.443ZM629.765 268.068L626.754 268.92C626.564 268.419 626.285 267.931 625.915 267.457C625.556 266.974 625.063 266.577 624.438 266.264C623.813 265.952 623.013 265.795 622.038 265.795C620.702 265.795 619.59 266.103 618.7 266.719C617.819 267.325 617.379 268.097 617.379 269.034C617.379 269.867 617.682 270.526 618.288 271.009C618.894 271.491 619.841 271.894 621.129 272.216L624.367 273.011C626.318 273.485 627.772 274.209 628.728 275.185C629.684 276.151 630.163 277.396 630.163 278.92C630.163 280.17 629.803 281.288 629.083 282.273C628.373 283.258 627.379 284.034 626.1 284.602C624.822 285.17 623.335 285.455 621.64 285.455C619.415 285.455 617.573 284.972 616.114 284.006C614.656 283.04 613.733 281.629 613.344 279.773L616.526 278.977C616.829 280.152 617.402 281.032 618.245 281.619C619.097 282.206 620.21 282.5 621.583 282.5C623.146 282.5 624.386 282.169 625.305 281.506C626.233 280.833 626.697 280.028 626.697 279.091C626.697 278.333 626.432 277.699 625.901 277.188C625.371 276.667 624.557 276.278 623.458 276.023L619.822 275.17C617.824 274.697 616.356 273.963 615.418 272.969C614.49 271.965 614.026 270.71 614.026 269.205C614.026 267.973 614.372 266.884 615.063 265.938C615.764 264.991 616.716 264.247 617.918 263.707C619.13 263.168 620.504 262.898 622.038 262.898C624.197 262.898 625.892 263.371 627.123 264.318C628.363 265.265 629.244 266.515 629.765 268.068ZM644.697 263.182V266.023H633.391V263.182H644.697ZM636.686 257.955H640.038V278.75C640.038 279.697 640.176 280.407 640.45 280.881C640.734 281.345 641.094 281.657 641.53 281.818C641.975 281.97 642.444 282.045 642.936 282.045C643.305 282.045 643.608 282.027 643.845 281.989C644.082 281.941 644.271 281.903 644.413 281.875L645.095 284.886C644.868 284.972 644.551 285.057 644.143 285.142C643.736 285.237 643.22 285.284 642.595 285.284C641.648 285.284 640.72 285.08 639.811 284.673C638.911 284.266 638.163 283.646 637.567 282.812C636.98 281.979 636.686 280.928 636.686 279.659V257.955ZM658.653 285.455C656.551 285.455 654.738 284.991 653.213 284.062C651.698 283.125 650.528 281.818 649.705 280.142C648.89 278.456 648.483 276.496 648.483 274.261C648.483 272.027 648.89 270.057 649.705 268.352C650.528 266.638 651.674 265.303 653.142 264.347C654.619 263.381 656.343 262.898 658.312 262.898C659.449 262.898 660.571 263.087 661.679 263.466C662.787 263.845 663.795 264.46 664.705 265.312C665.614 266.155 666.338 267.273 666.878 268.665C667.418 270.057 667.688 271.771 667.688 273.807V275.227H650.869V272.33H664.278C664.278 271.098 664.032 270 663.54 269.034C663.057 268.068 662.366 267.306 661.466 266.747C660.576 266.188 659.525 265.909 658.312 265.909C656.977 265.909 655.822 266.241 654.847 266.903C653.881 267.557 653.137 268.409 652.616 269.46C652.096 270.511 651.835 271.638 651.835 272.841V274.773C651.835 276.42 652.119 277.817 652.688 278.963C653.265 280.099 654.065 280.966 655.088 281.562C656.111 282.15 657.299 282.443 658.653 282.443C659.534 282.443 660.33 282.32 661.04 282.074C661.759 281.818 662.38 281.439 662.901 280.938C663.421 280.426 663.824 279.792 664.108 279.034L667.347 279.943C667.006 281.042 666.433 282.008 665.628 282.841C664.823 283.665 663.829 284.309 662.645 284.773C661.461 285.227 660.131 285.455 658.653 285.455ZM672.787 285V263.182H676.026V266.477H676.253C676.651 265.398 677.37 264.522 678.412 263.849C679.454 263.177 680.628 262.841 681.935 262.841C682.181 262.841 682.489 262.846 682.858 262.855C683.227 262.865 683.507 262.879 683.696 262.898V266.307C683.582 266.278 683.322 266.236 682.915 266.179C682.517 266.113 682.096 266.08 681.651 266.08C680.59 266.08 679.643 266.302 678.81 266.747C677.986 267.183 677.332 267.789 676.849 268.565C676.376 269.332 676.139 270.208 676.139 271.193V285H672.787ZM687.67 285V263.182H691.022V285H687.67ZM689.374 259.545C688.721 259.545 688.157 259.323 687.684 258.878C687.22 258.433 686.988 257.898 686.988 257.273C686.988 256.648 687.22 256.113 687.684 255.668C688.157 255.223 688.721 255 689.374 255C690.028 255 690.586 255.223 691.05 255.668C691.524 256.113 691.761 256.648 691.761 257.273C691.761 257.898 691.524 258.433 691.05 258.878C690.586 259.323 690.028 259.545 689.374 259.545ZM706.026 285.455C704.056 285.455 702.328 284.986 700.841 284.048C699.364 283.111 698.208 281.799 697.375 280.114C696.551 278.428 696.139 276.458 696.139 274.205C696.139 271.932 696.551 269.948 697.375 268.253C698.208 266.558 699.364 265.241 700.841 264.304C702.328 263.366 704.056 262.898 706.026 262.898C707.995 262.898 709.719 263.366 711.196 264.304C712.683 265.241 713.838 266.558 714.662 268.253C715.495 269.948 715.912 271.932 715.912 274.205C715.912 276.458 715.495 278.428 714.662 280.114C713.838 281.799 712.683 283.111 711.196 284.048C709.719 284.986 707.995 285.455 706.026 285.455ZM706.026 282.443C707.522 282.443 708.753 282.06 709.719 281.293C710.685 280.526 711.4 279.517 711.864 278.267C712.328 277.017 712.56 275.663 712.56 274.205C712.56 272.746 712.328 271.387 711.864 270.128C711.4 268.868 710.685 267.85 709.719 267.074C708.753 266.297 707.522 265.909 706.026 265.909C704.529 265.909 703.298 266.297 702.332 267.074C701.366 267.85 700.652 268.868 700.188 270.128C699.723 271.387 699.491 272.746 699.491 274.205C699.491 275.663 699.723 277.017 700.188 278.267C700.652 279.517 701.366 280.526 702.332 281.293C703.298 282.06 704.529 282.443 706.026 282.443ZM721.029 285V263.182H724.268V266.477H724.495C724.893 265.398 725.612 264.522 726.654 263.849C727.696 263.177 728.87 262.841 730.177 262.841C730.423 262.841 730.731 262.846 731.1 262.855C731.469 262.865 731.749 262.879 731.938 262.898V266.307C731.825 266.278 731.564 266.236 731.157 266.179C730.759 266.113 730.338 266.08 729.893 266.08C728.832 266.08 727.885 266.302 727.052 266.747C726.228 267.183 725.575 267.789 725.092 268.565C724.618 269.332 724.381 270.208 724.381 271.193V285H721.029Z" fill="#032856"/>
<path d="M175.068 523.182V493.182H178.307V496.648H178.705C178.951 496.269 179.292 495.786 179.727 495.199C180.172 494.602 180.807 494.072 181.631 493.608C182.464 493.134 183.591 492.898 185.011 492.898C186.848 492.898 188.468 493.357 189.869 494.276C191.271 495.194 192.365 496.496 193.151 498.182C193.937 499.867 194.33 501.856 194.33 504.148C194.33 506.458 193.937 508.461 193.151 510.156C192.365 511.842 191.276 513.149 189.884 514.077C188.491 514.995 186.886 515.455 185.068 515.455C183.667 515.455 182.545 515.223 181.702 514.759C180.859 514.285 180.21 513.75 179.756 513.153C179.301 512.547 178.951 512.045 178.705 511.648H178.42V523.182H175.068ZM178.364 504.091C178.364 505.739 178.605 507.192 179.088 508.452C179.571 509.702 180.277 510.682 181.205 511.392C182.133 512.093 183.269 512.443 184.614 512.443C186.015 512.443 187.185 512.074 188.122 511.335C189.069 510.587 189.779 509.583 190.253 508.324C190.736 507.055 190.977 505.644 190.977 504.091C190.977 502.557 190.741 501.174 190.267 499.943C189.803 498.703 189.098 497.723 188.151 497.003C187.213 496.274 186.034 495.909 184.614 495.909C183.25 495.909 182.104 496.255 181.176 496.946C180.248 497.628 179.547 498.584 179.074 499.815C178.6 501.037 178.364 502.462 178.364 504.091ZM199.443 515V493.182H202.682V496.477H202.909C203.307 495.398 204.027 494.522 205.068 493.849C206.11 493.177 207.284 492.841 208.591 492.841C208.837 492.841 209.145 492.846 209.514 492.855C209.884 492.865 210.163 492.879 210.352 492.898V496.307C210.239 496.278 209.978 496.236 209.571 496.179C209.173 496.113 208.752 496.08 208.307 496.08C207.246 496.08 206.299 496.302 205.466 496.747C204.642 497.183 203.989 497.789 203.506 498.565C203.032 499.332 202.795 500.208 202.795 501.193V515H199.443ZM214.326 515V493.182H217.678V515H214.326ZM216.031 489.545C215.377 489.545 214.814 489.323 214.34 488.878C213.876 488.433 213.644 487.898 213.644 487.273C213.644 486.648 213.876 486.113 214.34 485.668C214.814 485.223 215.377 485 216.031 485C216.684 485 217.243 485.223 217.707 485.668C218.18 486.113 218.417 486.648 218.417 487.273C218.417 487.898 218.18 488.433 217.707 488.878C217.243 489.323 216.684 489.545 216.031 489.545ZM232.682 515.455C230.712 515.455 228.984 514.986 227.497 514.048C226.02 513.111 224.865 511.799 224.031 510.114C223.207 508.428 222.795 506.458 222.795 504.205C222.795 501.932 223.207 499.948 224.031 498.253C224.865 496.558 226.02 495.241 227.497 494.304C228.984 493.366 230.712 492.898 232.682 492.898C234.652 492.898 236.375 493.366 237.852 494.304C239.339 495.241 240.494 496.558 241.318 498.253C242.152 499.948 242.568 501.932 242.568 504.205C242.568 506.458 242.152 508.428 241.318 510.114C240.494 511.799 239.339 513.111 237.852 514.048C236.375 514.986 234.652 515.455 232.682 515.455ZM232.682 512.443C234.178 512.443 235.409 512.06 236.375 511.293C237.341 510.526 238.056 509.517 238.52 508.267C238.984 507.017 239.216 505.663 239.216 504.205C239.216 502.746 238.984 501.387 238.52 500.128C238.056 498.868 237.341 497.85 236.375 497.074C235.409 496.297 234.178 495.909 232.682 495.909C231.186 495.909 229.955 496.297 228.989 497.074C228.023 497.85 227.308 498.868 226.844 500.128C226.38 501.387 226.148 502.746 226.148 504.205C226.148 505.663 226.38 507.017 226.844 508.267C227.308 509.517 228.023 510.526 228.989 511.293C229.955 512.06 231.186 512.443 232.682 512.443ZM247.685 515V493.182H250.924V496.477H251.151C251.549 495.398 252.269 494.522 253.31 493.849C254.352 493.177 255.526 492.841 256.833 492.841C257.079 492.841 257.387 492.846 257.756 492.855C258.126 492.865 258.405 492.879 258.594 492.898V496.307C258.481 496.278 258.22 496.236 257.813 496.179C257.415 496.113 256.994 496.08 256.549 496.08C255.488 496.08 254.541 496.302 253.708 496.747C252.884 497.183 252.231 497.789 251.748 498.565C251.274 499.332 251.038 500.208 251.038 501.193V515H247.685Z" fill="#032856"/>
</svg>
